<svg width="27" height="30" viewBox="0 0 27 30" fill="none" xmlns="http://www.w3.org/2000/svg">
<path d="M3.32141 11.5C3.32141 9.61438 3.32141 8.67157 3.9072 8.08579C4.49298 7.5 5.43579 7.5 7.32141 7.5H19.25C21.1356 7.5 22.0784 7.5 22.6642 8.08579C23.25 8.67157 23.25 9.61438 23.25 11.5V12.5H3.32141V11.5Z" fill="#7E869E" fill-opacity="0.25"/>
<rect x="3.32141" y="7.5" width="19.9286" height="18.75" rx="2" stroke="#222222" stroke-width="1.2"/>
<path d="M7.75 3.75L7.75 7.5" stroke="#222222" stroke-width="1.2" stroke-linecap="round"/>
<path d="M18.8214 3.75L18.8214 7.5" stroke="#222222" stroke-width="1.2" stroke-linecap="round"/>
<rect x="7.75" y="15" width="4.42857" height="2.5" rx="0.5" fill="#222222"/>
<rect x="7.75" y="20" width="4.42857" height="2.5" rx="0.5" fill="#222222"/>
<rect x="14.3928" y="15" width="4.42857" height="2.5" rx="0.5" fill="#222222"/>
<rect x="14.3928" y="20" width="4.42857" height="2.5" rx="0.5" fill="#222222"/>
</svg>
