<svg width="38" height="40" viewBox="0 0 38 40" fill="none" xmlns="http://www.w3.org/2000/svg">
<path d="M3.0967 6.33682L7.34384 1.78389C7.73921 1.36005 8.41094 1.36005 8.80631 1.78389L15.7306 9.20677C16.089 9.59092 16.089 10.1869 15.7306 10.571L12.6812 13.84C12.4031 14.1381 12.3339 14.5753 12.5062 14.9448L13.1325 16.2876C15.2322 20.7894 18.733 24.4904 23.1111 26.8371L23.9803 27.303C24.3803 27.5174 24.8744 27.4356 25.184 27.1037L28.0735 24.0061C28.4689 23.5823 29.1406 23.5823 29.536 24.0061L36.4603 31.429C36.8187 31.8131 36.8187 32.4091 36.4603 32.7932L32.6073 36.9237C30.4635 39.2218 26.9096 39.4763 24.4603 37.507L14.7758 29.7207C13.0812 28.3582 11.5883 26.7623 10.3418 24.9807L2.56787 13.8691C0.944142 11.5483 1.16461 8.40802 3.0967 6.33682Z" stroke="#33363F" stroke-width="2"/>
</svg>
