<svg width="47" height="55" viewBox="0 0 47 55" fill="none" xmlns="http://www.w3.org/2000/svg">
<path fill-rule="evenodd" clip-rule="evenodd" d="M23.8914 45.5777C26.2489 44.1903 37.0441 37.1834 37.0441 25.2084C37.0441 16.3488 30.9535 9.16669 23.4403 9.16669C15.9271 9.16669 9.83643 16.3488 9.83643 25.2084C9.83643 37.1834 20.6316 44.1903 22.9891 45.5777C23.2738 45.7452 23.6067 45.7452 23.8914 45.5777ZM23.4403 32.0834C26.6602 32.0834 29.2705 29.0053 29.2705 25.2084C29.2705 21.4114 26.6602 18.3334 23.4403 18.3334C20.2203 18.3334 17.6101 21.4114 17.6101 25.2084C17.6101 29.0053 20.2203 32.0834 23.4403 32.0834Z" fill="#CC0000"/>
<path d="M23.8914 45.5777L24.1958 46.0948L24.1958 46.0948L23.8914 45.5777ZM22.9891 45.5777L22.6848 46.0948L22.6848 46.0948L22.9891 45.5777ZM36.4441 25.2084C36.4441 31.0045 33.8335 35.6152 30.9002 38.9683C27.9651 42.3237 24.7366 44.3841 23.5871 45.0606L24.1958 46.0948C25.4038 45.3838 28.7516 43.2472 31.8034 39.7584C34.8572 36.2676 37.6441 31.3872 37.6441 25.2084H36.4441ZM23.4403 9.76669C30.5332 9.76669 36.4441 16.5836 36.4441 25.2084H37.6441C37.6441 16.1139 31.3738 8.56669 23.4403 8.56669V9.76669ZM10.4364 25.2084C10.4364 16.5836 16.3474 9.76669 23.4403 9.76669V8.56669C15.5068 8.56669 9.23643 16.1139 9.23643 25.2084H10.4364ZM23.2934 45.0606C22.144 44.3841 18.9155 42.3237 15.9803 38.9683C13.0471 35.6152 10.4364 31.0045 10.4364 25.2084H9.23643C9.23643 31.3872 12.0234 36.2676 15.0771 39.7584C18.129 43.2472 21.4768 45.3838 22.6848 46.0948L23.2934 45.0606ZM23.5871 45.0606C23.4902 45.1176 23.3903 45.1176 23.2934 45.0606L22.6848 46.0948C23.1573 46.3728 23.7232 46.3728 24.1958 46.0948L23.5871 45.0606ZM28.6705 25.2084C28.6705 28.7705 26.2399 31.4834 23.4403 31.4834V32.6834C27.0805 32.6834 29.8705 29.2402 29.8705 25.2084H28.6705ZM23.4403 18.9334C26.2399 18.9334 28.6705 21.6462 28.6705 25.2084H29.8705C29.8705 21.1766 27.0805 17.7334 23.4403 17.7334V18.9334ZM18.2101 25.2084C18.2101 21.6462 20.6406 18.9334 23.4403 18.9334V17.7334C19.8001 17.7334 17.0101 21.1766 17.0101 25.2084H18.2101ZM23.4403 31.4834C20.6406 31.4834 18.2101 28.7705 18.2101 25.2084H17.0101C17.0101 29.2402 19.8001 32.6834 23.4403 32.6834V31.4834Z" fill="#222222"/>
</svg>
