<svg width="44" height="42" viewBox="0 0 44 42" fill="none" xmlns="http://www.w3.org/2000/svg">
<path d="M33.1627 32.7396C33.1627 29.905 31.0463 26.2499 27.7439 26.25H16.9064C13.604 26.2499 11.4876 29.905 11.4876 32.7396M6.06885 21C6.06885 12.3015 13.347 5.25 22.3252 5.25C31.3033 5.25 38.5815 12.3015 38.5815 21C38.5815 29.6985 31.3033 36.75 22.3252 36.75C13.347 36.75 6.06885 29.6985 6.06885 21ZM27.7439 15.75C27.7439 18.6495 25.3179 21 22.3252 21C19.3324 21 16.9064 18.6495 16.9064 15.75C16.9064 12.8505 19.3324 10.5 22.3252 10.5C25.3179 10.5 27.7439 12.8505 27.7439 15.75Z" stroke="#222222" stroke-width="1.5"/>
</svg>
