<svg width="36" height="36" viewBox="0 0 36 36" fill="none" xmlns="http://www.w3.org/2000/svg">
<path d="M5.92285 18.1205C5.92285 16.2349 5.92285 15.2921 6.50864 14.7063C7.09442 14.1205 8.03723 14.1205 9.92285 14.1205H25.6152C27.5008 14.1205 28.4436 14.1205 29.0294 14.7063C29.6152 15.2921 29.6152 16.2349 29.6152 18.1205V25.6205C29.6152 28.4489 29.6152 29.8631 28.7365 30.7418C27.8578 31.6205 26.4436 31.6205 23.6152 31.6205H11.9228C9.09442 31.6205 7.68021 31.6205 6.80153 30.7418C5.92285 29.8631 5.92285 28.4489 5.92285 25.6205V18.1205Z" stroke="#6B705C" stroke-width="2"/>
<path d="M23.6919 12.6621V11.2936C23.6919 10.4361 23.6919 10.0074 23.6394 9.64804C23.32 7.46049 21.6019 5.74238 19.4143 5.42295C19.055 5.37048 18.6263 5.37048 17.7688 5.37048V5.37048C16.9113 5.37048 16.4826 5.37048 16.1233 5.42295C13.9357 5.74238 12.2176 7.46049 11.8982 9.64804C11.8457 10.0074 11.8457 10.4361 11.8457 11.2936V12.6621" stroke="#6B705C" stroke-width="2" stroke-linecap="round"/>
<ellipse cx="17.7692" cy="22.8705" rx="2.96154" ry="2.91667" fill="#6B705C"/>
</svg>
